<svg xmlns="http://www.w3.org/2000/svg" viewBox="0 0 512 512" fill="none">
  <defs>
    <linearGradient id="bg" x1="84" y1="38" x2="432" y2="474" gradientUnits="userSpaceOnUse">
      <stop offset="0" stop-color="#180820"/>
      <stop offset="0.48" stop-color="#101E2A"/>
      <stop offset="1" stop-color="#05171A"/>
    </linearGradient>
    <linearGradient id="rim" x1="138" y1="104" x2="388" y2="415" gradientUnits="userSpaceOnUse">
      <stop offset="0" stop-color="#FBF8CC"/>
      <stop offset="0.44" stop-color="#00F5D4"/>
      <stop offset="1" stop-color="#FF006E"/>
    </linearGradient>
    <linearGradient id="disc" x1="164" y1="145" x2="346" y2="372" gradientUnits="userSpaceOnUse">
      <stop offset="0" stop-color="#192336"/>
      <stop offset="1" stop-color="#070A16"/>
    </linearGradient>
    <linearGradient id="play" x1="224" y1="203" x2="319" y2="298" gradientUnits="userSpaceOnUse">
      <stop offset="0" stop-color="#FBF8CC"/>
      <stop offset="0.52" stop-color="#00F5D4"/>
      <stop offset="1" stop-color="#FF006E"/>
    </linearGradient>
    <filter id="softGlow" x="-20%" y="-20%" width="140%" height="140%" color-interpolation-filters="sRGB">
      <feGaussianBlur stdDeviation="10" result="blur"/>
      <feColorMatrix in="blur" type="matrix" values="0 0 0 0 0.02 0 0 0 0 0.86 0 0 0 0 0.78 0 0 0 0.65 0"/>
      <feMerge>
        <feMergeNode/>
        <feMergeNode in="SourceGraphic"/>
      </feMerge>
    </filter>
    <filter id="hotGlow" x="-60%" y="-60%" width="220%" height="220%" color-interpolation-filters="sRGB">
      <feGaussianBlur stdDeviation="8" result="blur"/>
      <feColorMatrix in="blur" type="matrix" values="0 0 0 0 1 0 0 0 0 0.02 0 0 0 0 0.43 0 0 0 0.78 0"/>
      <feMerge>
        <feMergeNode/>
        <feMergeNode in="SourceGraphic"/>
      </feMerge>
    </filter>
  </defs>

  <rect width="512" height="512" rx="112" fill="url(#bg)"/>
  <path d="M92 350C145 434 293 463 386 386C462 323 454 199 374 127C292 53 157 70 96 157" stroke="#00F5D4" stroke-width="12" stroke-linecap="round" opacity="0.14"/>
  <path d="M418 123C379 72 288 50 210 77" stroke="#FF006E" stroke-width="12" stroke-linecap="round" opacity="0.18"/>

  <g filter="url(#softGlow)">
    <circle cx="256" cy="256" r="174" fill="url(#rim)"/>
    <circle cx="256" cy="256" r="148" fill="url(#disc)"/>
    <circle cx="256" cy="256" r="112" stroke="#FBF8CC" stroke-width="3" opacity="0.12"/>
    <circle cx="256" cy="256" r="82" stroke="#00F5D4" stroke-width="3" opacity="0.16"/>
    <circle cx="256" cy="256" r="44" fill="#11182A" stroke="#FBF8CC" stroke-width="8"/>
    <circle cx="256" cy="256" r="13" fill="#FBF8CC"/>
  </g>

  <path d="M239 214L239 298L314 256L239 214Z" fill="url(#play)" filter="url(#hotGlow)"/>

  <g stroke-linecap="round" filter="url(#softGlow)">
    <path d="M116 218C136 204 157 197 180 197" stroke="#FBF8CC" stroke-width="14"/>
    <path d="M103 257C128 241 153 233 180 233" stroke="#00F5D4" stroke-width="14"/>
    <path d="M116 296C136 308 157 315 180 315" stroke="#FF006E" stroke-width="14"/>
    <path d="M332 197C356 197 377 204 397 218" stroke="#FF006E" stroke-width="14"/>
    <path d="M332 233C359 233 384 241 409 257" stroke="#00F5D4" stroke-width="14"/>
    <path d="M332 315C355 315 376 308 396 296" stroke="#FBF8CC" stroke-width="14"/>
  </g>
</svg>
